<svg width="48" height="28" viewBox="0 0 48 28" fill="none" xmlns="http://www.w3.org/2000/svg">
<rect x="0.5" width="47" height="28" rx="6" fill="#F8FAFB"/>
<path d="M19.0455 15.0909H17.6818V12.9091H19.0455C19.5309 12.9091 20.0055 12.7651 20.4091 12.4954C20.8128 12.2257 21.1274 11.8424 21.3132 11.3939C21.4989 10.9454 21.5475 10.4518 21.4528 9.97569C21.3581 9.49955 21.1244 9.06219 20.7811 8.71892C20.4378 8.37565 20.0004 8.14187 19.5243 8.04716C19.0482 7.95246 18.5547 8.00106 18.1061 8.18684C17.6576 8.37262 17.2743 8.68723 17.0046 9.09087C16.7349 9.49452 16.5909 9.96908 16.5909 10.4545V11.8182H14.4091V10.4545C14.4091 9.96908 14.2651 9.49452 13.9954 9.09087C13.7257 8.68723 13.3424 8.37262 12.8939 8.18684C12.4454 8.00106 11.9518 7.95246 11.4757 8.04716C10.9996 8.14187 10.5622 8.37565 10.2189 8.71892C9.87565 9.06219 9.64187 9.49955 9.54716 9.97569C9.45246 10.4518 9.50106 10.9454 9.68684 11.3939C9.87262 11.8424 10.1872 12.2257 10.5909 12.4954C10.9945 12.7651 11.4691 12.9091 11.9545 12.9091H13.3182V15.0909H11.9545C11.4691 15.0909 10.9945 15.2349 10.5909 15.5046C10.1872 15.7743 9.87262 16.1576 9.68684 16.6061C9.50106 17.0547 9.45246 17.5482 9.54716 18.0243C9.64187 18.5004 9.87565 18.9378 10.2189 19.2811C10.5622 19.6244 10.9996 19.8581 11.4757 19.9528C11.9518 20.0475 12.4454 19.9989 12.8939 19.8132C13.3424 19.6274 13.7257 19.3128 13.9954 18.9091C14.2651 18.5055 14.4091 18.0309 14.4091 17.5455V16.1818H16.5909V17.5455C16.5909 18.0309 16.7349 18.5055 17.0046 18.9091C17.2743 19.3128 17.6576 19.6274 18.1061 19.8132C18.5547 19.9989 19.0482 20.0475 19.5243 19.9528C20.0004 19.8581 20.4378 19.6244 20.7811 19.2811C21.1244 18.9378 21.3581 18.5004 21.4528 18.0243C21.5475 17.5482 21.4989 17.0547 21.3132 16.6061C21.1274 16.1576 20.8128 15.7743 20.4091 15.5046C20.0055 15.2349 19.5309 15.0909 19.0455 15.0909ZM17.6818 10.4545C17.6818 10.1848 17.7618 9.9212 17.9116 9.69695C18.0615 9.4727 18.2744 9.29792 18.5236 9.19471C18.7728 9.0915 19.047 9.0645 19.3115 9.11711C19.576 9.16973 19.819 9.2996 20.0097 9.49031C20.2004 9.68102 20.3303 9.92399 20.3829 10.1885C20.4355 10.453 20.4085 10.7272 20.3053 10.9764C20.2021 11.2256 20.0273 11.4385 19.803 11.5884C19.5788 11.7382 19.3152 11.8182 19.0455 11.8182H17.6818V10.4545ZM10.5909 10.4545C10.5909 10.0929 10.7346 9.74604 10.9903 9.49031C11.246 9.23458 11.5929 9.09091 11.9545 9.09091C12.3162 9.09091 12.6631 9.23458 12.9188 9.49031C13.1745 9.74604 13.3182 10.0929 13.3182 10.4545V11.8182H11.9545C11.5929 11.8182 11.246 11.6745 10.9903 11.4188C10.7346 11.1631 10.5909 10.8162 10.5909 10.4545ZM13.3182 17.5455C13.3182 17.8152 13.2382 18.0788 13.0884 18.303C12.9385 18.5273 12.7256 18.7021 12.4764 18.8053C12.2272 18.9085 11.953 18.9355 11.6885 18.8829C11.424 18.8303 11.181 18.7004 10.9903 18.5097C10.7996 18.319 10.6697 18.076 10.6171 17.8115C10.5645 17.547 10.5915 17.2728 10.6947 17.0236C10.7979 16.7744 10.9727 16.5615 11.197 16.4116C11.4212 16.2618 11.6848 16.1818 11.9545 16.1818H13.3182V17.5455ZM14.4091 12.9091H16.5909V15.0909H14.4091V12.9091ZM19.0455 18.9091C18.6838 18.9091 18.3369 18.7654 18.0812 18.5097C17.8255 18.254 17.6818 17.9071 17.6818 17.5455V16.1818H19.0455C19.4071 16.1818 19.754 16.3255 20.0097 16.5812C20.2654 16.8369 20.4091 17.1838 20.4091 17.5455C20.4091 17.9071 20.2654 18.254 20.0097 18.5097C19.754 18.7654 19.4071 18.9091 19.0455 18.9091Z" fill="#86858A"/>
<path d="M28.78 8.64H30.86V13.824L35.308 8.64H37.772L33.516 13.632L38.044 20H35.66L32.14 15.056L30.86 16.512V20H28.78V8.64Z" fill="#86858A"/>
</svg>
