<svg width="20" height="20" viewBox="0 0 20 20" fill="none" xmlns="http://www.w3.org/2000/svg">
<path d="M13.1 5.50001L8 10.6L8 8.35001L6 8.35001L6 14L11.65 14L11.65 12L9.425 12L14.5 6.92501L13.1 5.50001ZM10 6.75517e-06C11.3833 6.8761e-06 12.6833 0.262674 13.9 0.788007C15.1167 1.31334 16.175 2.02567 17.075 2.92501C17.975 3.82434 18.6873 4.88268 19.212 6.10001C19.7367 7.31734 19.9993 8.61734 20 10C20.0007 11.3827 19.738 12.6827 19.212 13.9C18.686 15.1173 17.9737 16.1757 17.075 17.075C16.1763 17.9743 15.118 18.6867 13.9 19.212C12.682 19.7373 11.382 20 10 20C8.618 20 7.318 19.7373 6.1 19.212C4.882 18.6867 3.82366 17.9743 2.925 17.075C2.02633 16.1757 1.31367 15.1173 0.786999 13.9C0.260333 12.6827 -0.00200196 11.3827 -1.03312e-06 10C0.0019999 8.61734 0.264667 7.31734 0.787999 6.10001C1.31133 4.88267 2.02367 3.82434 2.925 2.92501C3.82633 2.02567 4.88467 1.31301 6.1 0.787007C7.31533 0.261008 8.61533 -0.0013266 10 6.75517e-06ZM10 2.00001C7.76667 2.00001 5.875 2.77501 4.325 4.32501C2.775 5.87501 2 7.76667 2 10C2 12.2333 2.775 14.125 4.325 15.675C5.875 17.225 7.76667 18 10 18C12.2333 18 14.125 17.225 15.675 15.675C17.225 14.125 18 12.2333 18 10C18 7.76667 17.225 5.87501 15.675 4.32501C14.125 2.77501 12.2333 2.00001 10 2.00001Z" fill="#667085"/>
</svg>
