<svg width="20" height="22" viewBox="0 0 20 22" fill="none" xmlns="http://www.w3.org/2000/svg">
<path d="M18 15.5H20V17.5H0V15.5H2V8.5C2 6.37827 2.84285 4.34344 4.34315 2.84315C5.84344 1.34285 7.87827 0.5 10 0.5C12.1217 0.5 14.1566 1.34285 15.6569 2.84315C17.1571 4.34344 18 6.37827 18 8.5V15.5ZM16 15.5V8.5C16 6.9087 15.3679 5.38258 14.2426 4.25736C13.1174 3.13214 11.5913 2.5 10 2.5C8.4087 2.5 6.88258 3.13214 5.75736 4.25736C4.63214 5.38258 4 6.9087 4 8.5V15.5H16ZM7 19.5H13V21.5H7V19.5Z" fill="#667085"/>
</svg>
